<svg width="384" height="131" xmlns="http://www.w3.org/2000/svg" xmlns:xlink="http://www.w3.org/1999/xlink"><defs><path id="a" d="M0 .215h19.573v36.55H0z"/><path id="c" d="M-.354 0h60v59h-60z"/></defs><g fill="none" fill-rule="evenodd"><g transform="translate(0 93.354)"><mask id="b" fill="#fff"><use xlink:href="#a"/></mask><path d="M18.388 7.862c-1.571-1.245-4.15-3.192-7.34-3.192-3.095 0-5.524 2.012-5.524 4.839 0 3.4 3 4.599 7.476 7.185 5.143 2.97 6.573 6.37 6.573 9.82 0 5.94-4.62 10.251-12.096 10.251-2.81 0-5.81-1.839-7.477-2.318v-7.616c1.62 1.868 5.048 5.719 8.333 5.719 3.096 0 5.335-2.49 5.335-5.03 0-2.49-1.953-4.646-3.001-5.317C3.047 17.413 0 16.071 0 10.61 0 4.91 4.714.215 10.572.215c3.238 0 6.102 1.372 7.816 2.09v5.557z" fill="#FFF" mask="url(#b)"/></g><path d="M35.804 114.89h9.009l-4.315-10.016-4.694 10.016zm17.17 5.17c2.572 5.604 4.24 7.904 5.573 9.723l-8.154.097c0-1.581-.514-3.402-1.8-6.324l-1.924-4.45H33.804l-1.64 3.492c-.619 1.342-2.324 4.455-2.133 7.282H21.64c1.19-1.39 2.238-2.683 5.19-8.575L40.593 93.81h.286l12.096 26.25zm16.904-26.108c-.858 2.396-1.105 3.977-1.105 8.91v7.042l9.19-11.257c2.287-2.73 2.478-3.545 2.763-4.695h9.049c-2.334 1.725-5.144 4.216-8.429 8.24l-6.43 7.712L87.06 125.28c1.334 1.676 1.619 2.108 4.047 4.55l-8.39.049c-.477-1.726-1.324-3.498-4.181-6.994l-9.763-12.359v10.346c0 4.025.486 7.473.915 9.007h-7.401c1-3.066 1.105-6.228 1.105-9.437v-18.73c0-2.395-.153-5.365-.915-7.665l7.4-.096zm47.466 0l-2.077 4.25c-3.69-.933-7.543-.992-11.304-.848v12.55h12l-2.438 4.023c-4.07-.655-6.044-.476-9.562-.574v13.126c4.571 0 7.698.51 13.355-1.183l-.498 4.584h-19.2c.618-2.108 1.009-4.647 1.009-9.246v-17.58c0-2.443-.01-5.988-1.01-9.102h19.725zm28.94-.095c-.62 1.676-1.106 3.688-1.106 8.239v7.282h15.288v-6.372c0-4.934-.44-7.233-1.058-9.15h7.496c-.81 2.348-1.057 4.073-1.057 9.582v16.621c0 5.94.296 7.713 1.057 9.82h-7.496c.763-2.204 1.058-3.88 1.058-9.628v-6.323h-15.288v5.94c0 5.7.391 7.904 1.011 10.011h-7.449c.62-1.676 1.058-3.88 1.058-9.245v-17.532c0-5.126-.487-7.617-1.058-9.245h7.544zm119.326 24.238c0 4.072 0 5.413.286 8.288 10.62-1.054 14.02-8.959 14.02-14.61 0-5.03-2.686-12.934-14.02-14.515-.286 2.204-.286 4.79-.286 6.562v14.275zm-5.173-14.323c0-4.982-.675-7.999-1.104-9.676 1.24-.096 1.82-.192 3.39-.192 6.574 0 14.478.623 19.907 7.617 2.62 3.401 3.572 7.233 3.572 10.73 0 9.342-7.096 17.629-18.573 17.629h-8.296c.623-2.36 1.104-4.312 1.104-10.922v-15.186zm40.453 8.958c3.38-.958 8.81-2.491 8.81-8 0-2.682-1.667-6.993-8.81-7.712v15.712zm-5.286-11.257c0-4.215-.248-6.18-.629-7.425l6.63-.096c9.19-.143 13.523 5.413 13.523 10.252 0 5.844-5.143 8.718-6.762 9.58 3.19 5.653 7.896 10.97 12.134 16.096h-4.905c-4.81-4.168-7.324-6.755-14.705-16.622v8.86c0 2.78-.277 3.929.675 7.762h-6.59c.762-3.546.63-6.18.63-9.294v-19.113zm-103.581 28.881c-8.511 0-13.958-5.792-13.958-13.983v-14.18c0-5.46-.2-6.706-.819-8.239h6.972c-.809 2.348-.82 3.64-.82 8.623v13.077c0 2.252.191 3.593.715 4.934 1.762 4.36 6.39 4.644 8.052 4.644 1.664 0 6.283-.284 8.045-4.644.524-1.341.714-2.682.714-4.934v-13.077c0-4.982-.01-6.275-.819-8.623h6.972c-.62 1.533-.82 2.779-.82 8.24v14.18c0 8.19-5.723 13.982-14.234 13.982m154.1-36.402l-2.076 4.25c-3.691-.933-7.544-.992-11.305-.848v12.55h12l-2.438 4.023c-4.07-.655-6.044-.476-9.562-.574v13.126c4.572 0 7.698.51 13.355-1.183l-.498 4.584h-19.2c.618-2.108 1.009-4.647 1.009-9.246v-17.58c0-2.443-.01-5.988-1.01-9.102h19.725zm16.609 24.143c0 4.072 0 5.413.287 8.288 10.619-1.054 14.02-8.959 14.02-14.61 0-5.03-2.686-12.934-14.02-14.515-.287 2.204-.287 4.79-.287 6.562v14.275zm-5.172-14.323c0-4.982-.676-7.999-1.104-9.676 1.239-.096 1.819-.192 3.39-.192 6.573 0 14.478.623 19.907 7.617 2.62 3.401 3.572 7.233 3.572 10.73 0 9.342-7.096 17.629-18.573 17.629h-8.296c.623-2.36 1.104-4.312 1.104-10.922v-15.186zm-109.895 17.15v-19.305c0-3.832.105-5.749.581-7.665h-6.21c.571 2.06.676 3.737.676 10.347v16.335l-14.906-20.598c-2.81-3.593-3.143-4.455-3.81-6.084h-8.524c1.576 1.268 2.508 2.099 3.572 3.323v23.12c0 .67-.24 6.45-.867 9.484h6.924c-1.095-2.921-1.104-7.377-1.104-10.538v-15.773l1.238 1.594 13.953 19.544c1.238 1.581 2.429 3.257 3.047 5.173h6.296c-.524-1.485-.866-3.4-.866-8.957" fill="#FFF"/><g transform="translate(160.694)"><mask id="d" fill="#fff"><use xlink:href="#c"/></mask><path d="M16.944 47.262c0 4.59-3.613 6.728-6.055 6.728-3.317 0-5.634-2.738-5.634-6.66 0-5.362 4.193-7.42 5.997-8.055a425.823 425.823 0 005.692-2.072v10.059zm25.94-35.235c0-4.59 3.613-6.729 6.055-6.729 3.317 0 5.633 2.74 5.633 6.66 0 5.364-4.193 7.421-5.996 8.056a417.175 417.175 0 00-5.692 2.073v-10.06zm11.688 35.29c0 3.92-2.316 6.66-5.633 6.66-2.442 0-6.055-2.139-6.055-6.73V27.438a502.704 502.704 0 017.399-2.706c4.526-1.595 9.363-5.79 9.363-12.773 0-3.347-1.07-6.256-3.094-8.41-1.974-2.102-4.678-3.26-7.613-3.26-5.352 0-11.128 4.488-11.128 11.738V23.98c-4.64 1.74-8.735 3.3-8.81 3.329-.065.024-3.15 1.2-6.984 2.643V1.384L17.367 0C12.414 7.37 3.82 12.229-.354 14.273l4.201 3.508c3.611-1.918 8.691-5.063 13.097-9.437v23.507a501.571 501.571 0 01-7.399 2.706C5.02 36.152.182 40.347.182 47.331c0 3.346 1.07 6.255 3.094 8.41C5.25 57.843 7.954 59 10.889 59c5.352 0 11.128-4.488 11.128-11.738V35.31a1937.51 1937.51 0 008.81-3.33c.065-.025 3.15-1.2 6.984-2.642v17.908c0 7.25 5.776 11.739 11.128 11.739 2.935 0 5.64-1.158 7.613-3.26 2.024-2.155 3.094-5.062 3.094-8.41v-2.749l-5.074-4.235v6.984z" fill="#FFF" mask="url(#d)"/></g></g></svg>