<svg width="678" height="65" xmlns="http://www.w3.org/2000/svg"><path d="M32.208 13.316c-2.752-2.168-7.269-5.56-12.856-5.56-5.423 0-9.677 3.505-9.677 8.427 0 5.922 5.256 8.009 13.095 12.512 9.01 5.172 11.512 11.093 11.512 17.1 0 10.343-8.09 17.85-21.187 17.85C8.173 63.645 2.92 60.444 0 59.61V46.346c2.837 3.254 8.841 9.959 14.597 9.959 5.421 0 9.342-4.338 9.342-8.76 0-4.336-3.42-8.089-5.255-9.257C5.338 29.947 0 27.611 0 18.101 0 8.175 8.256 0 18.517 0c5.672 0 10.69 2.388 13.691 3.64v9.675zm31.369 23.136h15.182l-7.258-16.767-7.924 16.767zm29.779 9.676c4.504 9.76 7.424 13.763 9.76 16.932l-14.849.167c0-2.753-.334-5.92-2.586-11.01l-3.67-8.425H60.074l-3.169 6.757c-1.085 2.336-3.504 7.757-3.17 12.678H38.47c2.085-2.419 3.92-4.67 9.092-14.93L71.668.417h.501l21.187 45.711zM126.364.667c-1.501 4.171-2.501 6.924-2.501 15.516v12.261L139.96 8.842c4.004-4.755 4.338-6.173 4.839-8.175h15.848c-4.087 3.003-9.01 7.341-14.763 14.348l-11.263 13.429 21.27 26.776c2.338 2.92 2.837 3.671 7.09 7.925l-15.264.083c-.833-3.003-1.751-6.089-6.755-12.178l-17.1-21.522v18.018c0 7.007 1.418 13.013 2.168 15.682h-14.097c1.753-5.339 2.503-10.844 2.503-16.433V14.181c0-4.171-.835-9.343-2.17-13.347l14.097-.167zm81.156 0l-4.756 9.676C195.758 7.174 192.087 6.34 185.5 6.59v21.854h19.602l-5.339 8.758c-7.174-2.085-9.51-2.419-14.263-2.753v22.857c8.007 0 12.428 0 25.69-4.505l-4.587 10.427H173.82c1.085-3.67 2.336-8.091 2.336-16.099V16.517c0-4.255-.583-10.428-2.336-15.85h33.7zm53.242-.166c-1.086 2.919-2.503 6.422-2.503 14.347v12.678h26.775V16.433c0-8.592-1.335-12.596-2.418-15.932h14.264c-1.42 4.087-2.42 7.09-2.42 16.683v28.944c0 10.344 1.085 13.43 2.42 17.1h-14.264c1.334-3.837 2.418-6.756 2.418-16.766V35.45H258.26v10.345c0 9.925 1.25 13.763 2.335 17.433h-14.18c1.085-2.92 2.419-6.756 2.419-16.099v-30.53c0-8.925-1.418-13.263-2.42-16.098h14.349zm133.383.166c1.167 2.836 1.75 4.338 6.672 10.594l28.278 35.868V18.685c0-11.511-.751-14.431-1.753-18.018h12.014c-.835 3.337-1.586 6.674-1.586 13.347V47.63c0 9.676 1.167 13.012 2.085 15.598H428.26c-1.085-3.336-3.17-6.256-5.34-9.009l-26.606-34.033v24.691c0 5.505.583 13.263 2.5 18.351h-13.262c2.002-6.507 2.087-15.349 2.087-16.516V9.092c-3.004-3.837-4.673-5.422-8.426-8.425h14.932zm75.624 42.041c0 7.09 0 9.425.5 14.431 18.602-1.835 24.274-15.599 24.274-25.442 0-8.759-4.42-22.52-24.273-25.274-.501 3.838-.501 8.341-.501 11.428v24.857zm-9.343-24.94c0-8.676-1.751-13.93-2.502-16.85 2.169-.167 3.753-.334 6.506-.334 11.512 0 25.359 1.084 34.868 13.263 4.588 5.923 6.256 12.594 6.256 18.685 0 16.265-12.43 30.696-32.532 30.696h-15.098c1.334-3.92 2.502-7.508 2.502-19.019V17.767zm71.704 15.598c5.923-1.669 15.433-4.339 15.433-13.93 0-4.673-2.92-12.179-15.433-13.43v27.36zm-9.258-19.603c0-7.34-1.002-10.76-1.668-12.929l12.178-.167c16.098-.25 23.688 9.427 23.688 17.85 0 10.177-9.008 15.182-11.844 16.683 5.59 9.843 13.262 19.103 20.686 28.027h-8.59c-8.425-7.257-12.263-11.76-25.192-28.944v15.432c0 4.838.083 6.838 1.751 13.512h-12.677c1.334-6.173 1.668-10.76 1.668-16.182V13.763zM610.39.667l-4.755 9.676c-7.007-3.169-10.677-4.003-17.267-3.753v21.854h19.603l-5.339 8.758c-7.173-2.085-9.51-2.419-14.264-2.753v22.857c8.008 0 12.429 0 25.692-4.505l-4.588 10.427h-32.781c1.085-3.67 2.334-8.091 2.334-16.099V16.517c0-4.255-.583-10.428-2.334-15.85h33.699zm31.196 42.041c0 7.09 0 9.425.501 14.431 18.601-1.835 24.273-15.599 24.273-25.442 0-8.759-4.42-22.52-24.273-25.274-.5 3.838-.5 8.341-.5 11.428v24.857zm-9.343-24.94c0-8.676-1.75-13.93-2.502-16.85 2.17-.167 3.753-.334 6.506-.334 11.512 0 25.36 1.084 34.868 13.263 4.588 5.923 6.256 12.594 6.256 18.685 0 16.265-12.43 30.696-32.53 30.696h-15.1c1.335-3.92 2.502-7.508 2.502-19.019V17.767zM340.309 64.054c-14.908 0-24.447-10.085-24.447-24.35v-24.69c0-9.508-.917-11.678-2.002-14.347h13.345c-1.417 4.088-2.001 6.34-2.001 15.015v22.772c0 3.92.334 6.256 1.25 8.59 3.087 7.593 11.192 8.087 14.105 8.087 2.913 0 11.004-.494 14.09-8.086.918-2.335 1.252-4.671 1.252-8.591V15.682c0-8.675-.585-10.927-2.002-15.015h13.345c-1.084 2.669-2.002 4.839-2.002 14.348v24.689c0 14.265-10.025 24.35-24.933 24.35" fill-rule="evenodd"/></svg>